<?xml version="1.0" encoding="UTF-8" standalone="no"?>
<!-- Created with Inkscape (http://www.inkscape.org/) -->

<svg
   width="210mm"
   height="297mm"
   viewBox="0 0 210 297"
   version="1.1"
   id="svg1"
   inkscape:version="1.3.2 (091e20e, 2023-11-25, custom)"
   sodipodi:docname="рисунок.svg"
   xml:space="preserve"
   xmlns:inkscape="http://www.inkscape.org/namespaces/inkscape"
   xmlns:sodipodi="http://sodipodi.sourceforge.net/DTD/sodipodi-0.dtd"
   xmlns="http://www.w3.org/2000/svg"
   xmlns:svg="http://www.w3.org/2000/svg"><sodipodi:namedview
     id="namedview1"
     pagecolor="#000000"
     bordercolor="#000000"
     borderopacity="0.25"
     inkscape:showpageshadow="2"
     inkscape:pageopacity="0.0"
     inkscape:pagecheckerboard="0"
     inkscape:deskcolor="#5d5d5d"
     inkscape:document-units="mm"
     inkscape:zoom="0.51717103"
     inkscape:cx="635.18639"
     inkscape:cy="575.2449"
     inkscape:window-width="1920"
     inkscape:window-height="1017"
     inkscape:window-x="-8"
     inkscape:window-y="-8"
     inkscape:window-maximized="1"
     inkscape:current-layer="svg1" /><defs
     id="defs1" /><path
     id="path2"
     style="display:inline;fill:#f9e7cf;fill-opacity:1;stroke-width:0.202101"
     d="m 67.398105,95.045593 c -11.43804,0.733764 -23.632818,21.721567 -34.052854,50.357287 -0.838783,2.31658 -5.944869,20.96269 -6.69507,23.32043 l -8.068521,27.50193 47.937045,9.82936 5.41787,-22.11725 c 9.99033,-33.10213 17.46121,-79.79917 7.08529,-86.900147 -1.61477,-1.104741 -9.6188,-2.120216 -11.62376,-1.99161 z"
     sodipodi:nodetypes="cccccccc" /><ellipse
     style="display:inline;fill:#f8bdd1;fill-opacity:1;stroke-width:0.121499"
     id="path1"
     cx="81.324821"
     cy="-98.648956"
     rx="32.999256"
     ry="17.130842"
     transform="matrix(-0.30340831,0.95286064,-0.93332023,-0.35904504,0,0)" /><rect
     style="display:inline;fill:#4cb4d1;fill-opacity:0.942149;stroke-width:0.264583"
     id="rect7"
     width="57.810505"
     height="69.065643"
     x="110.04668"
     y="148.4736"
     ry="7.929759" /><rect
     style="display:inline;fill:#f8bdd1;fill-opacity:1;stroke-width:0.232388"
     id="rect7-6"
     width="50.776043"
     height="60.661636"
     x="113.6993"
     y="153.80096"
     ry="6.9648547" /><rect
     style="display:inline;fill:#55b8d3;fill-opacity:1;stroke-width:0.264583"
     id="rect8"
     width="38.369804"
     height="7.4181614"
     x="119.25542"
     y="142.33444"
     ry="3.7090807" /><rect
     style="display:inline;fill:#55b8d3;fill-opacity:1;stroke-width:0.264583"
     id="rect9"
     width="20.719694"
     height="26.60306"
     x="127.95258"
     y="119.05676"
     ry="3.7090807"
     inkscape:transform-center-x="0.73872772"
     inkscape:transform-center-y="-1.0640019" /><rect
     style="display:inline;fill:#55b8d3;fill-opacity:1;stroke-width:0.264583"
     id="rect10"
     width="3.0056345"
     height="2.1742887"
     x="147.07353"
     y="133.63728"
     ry="1.0871444" /><rect
     style="display:inline;fill:#55b8d3;fill-opacity:1;stroke-width:0.264583"
     id="rect10-1"
     width="3.0056345"
     height="2.1742887"
     x="147.11058"
     y="126.34475"
     ry="1.0871444" /><rect
     style="display:inline;fill:#55b8d3;fill-opacity:1;stroke-width:0.264583"
     id="rect10-6"
     width="3.0056345"
     height="2.1742887"
     x="146.90117"
     y="122.30328"
     ry="1.0871444" /><rect
     style="display:inline;fill:#55b8d3;fill-opacity:1;stroke-width:0.264583"
     id="rect10-7"
     width="3.0056345"
     height="2.1742887"
     x="126.59152"
     y="124.50004"
     ry="1.0871444" /><rect
     style="display:inline;fill:#55b8d3;fill-opacity:1;stroke-width:0.264583"
     id="rect10-4"
     width="3.0056345"
     height="2.1742887"
     x="126.62733"
     y="128.18909"
     ry="1.0871444" /><rect
     style="display:inline;fill:#55b8d3;fill-opacity:1;stroke-width:0.264583"
     id="rect10-14"
     width="3.0056345"
     height="2.1742887"
     x="126.74645"
     y="133.61359"
     ry="1.0871444" /><path
     style="display:inline;fill:#55b8d3;fill-opacity:1;stroke-width:0.434292"
     d="m 148.66034,138.0025 c 2.09793,0.92709 3.97217,5.24142 -0.004,4.68119"
     id="path11-6"
     sodipodi:nodetypes="cc" /><path
     style="display:inline;fill:#55b8d3;fill-opacity:1;stroke-width:0.434292"
     d="m 128.02436,137.84832 c -2.09793,0.92709 -3.97217,5.24142 0.004,4.68119"
     id="path11-6-4"
     sodipodi:nodetypes="cc" /><rect
     style="fill:#f2f2f2;fill-opacity:1;stroke-width:0.246479"
     id="rect11-8"
     width="7.782537"
     height="44.576736"
     x="164.82695"
     y="-43.939312"
     ry="1.6438223"
     transform="matrix(0.66951257,0.74280072,-0.75770992,0.65259151,0,0)" /><rect
     style="fill:#999999;fill-opacity:1;stroke-width:0.246479"
     id="rect11"
     width="21.218653"
     height="45.902222"
     x="158.20593"
     y="-64.804352"
     ry="3.7606049"
     transform="matrix(0.66951257,0.74280072,-0.75770992,0.65259151,0,0)" /><rect
     style="fill:#f8bdd1;fill-opacity:1;stroke-width:0.208741"
     id="rect12"
     width="6.3393526"
     height="18.589684"
     x="164.40172"
     y="10.731348"
     ry="4.851881"
     rx="3.1197"
     transform="rotate(45.275725)" /><path
     style="fill:#f8bdd1;fill-opacity:1;stroke-width:0.270647"
     d="m 108.54253,126.61659 2.18112,-3.00773 c 1.37828,0.76531 4.22883,3.07655 3.36209,3.55814 -0.91572,0.50881 -0.51143,0.26162 -1.94324,0.94454 -2.81217,1.34132 -1.721,0.85798 -3.59997,-1.49495 z"
     id="path17"
     sodipodi:nodetypes="ccssc" /><path
     style="fill:#f8bdd1;fill-opacity:1;stroke-width:0.208741"
     d="m 96.662574,139.10986 0.78488,1.92649 c 0,0 0.71349,1.85511 0.5708,2.28321 -0.1427,0.42813 -0.49945,32.32203 -0.49945,32.32203 l -0.4281,6.99242 -0.64216,2.78267 -0.28542,1.14162 2.85405,-0.14271 -0.49946,-1.71242 -0.21406,-1.99783 0.14272,-19.90695 0.92755,-19.47885 0.998906,-2.21186 0.71352,-1.64108 z"
     id="path24" /><circle
     style="fill:#f8bdd1;fill-opacity:1;stroke-width:0.208741"
     id="path25"
     cx="97.536636"
     cy="187.64642"
     r="2.2653949" /></svg>
